<svg width="34" height="42" viewBox="0 0 34 42" fill="none" xmlns="http://www.w3.org/2000/svg">
<path d="M31.6464 0L32.4922 13.4655H31.6464C30.5187 9.43526 28.9077 6.53328 26.8134 4.7621C24.719 2.99092 22.2094 2.10407 19.2768 2.10407C16.82 2.10407 14.5998 2.77239 12.6138 4.10395C10.6302 5.43805 9.06952 7.56498 7.93174 10.4873C6.79396 13.4071 6.22507 17.0409 6.22507 21.3812C6.22507 24.9642 6.76123 28.0695 7.83608 30.6995C8.91094 33.3271 10.5245 35.3447 12.6817 36.7449C14.839 38.1476 17.3008 38.849 20.0672 38.849C22.4712 38.849 24.5907 38.3001 26.4282 37.1998C28.2658 36.0995 30.2871 33.9141 32.4897 30.6436L33.3355 31.2281C31.4778 34.7527 29.3129 37.3319 26.836 38.9684C24.3616 40.6049 21.4215 41.4232 18.0157 41.4232C11.8812 41.4232 7.13127 38.9888 3.76323 34.1199C1.25609 30.4937 0 26.2297 0 21.3227C0 17.3713 0.828163 13.7374 2.48449 10.4288C4.14082 7.11774 6.42141 4.55373 9.32376 2.73173C12.2286 0.91227 15.4003 0 18.8413 0C21.5171 0 24.1552 0.701355 26.7605 2.10407C27.5257 2.53352 28.072 2.74697 28.3992 2.74697C28.8901 2.74697 29.318 2.56147 29.683 2.19301C30.1562 1.66699 30.4935 0.937682 30.6924 0.00254114H31.6489L31.6464 0Z" fill="#B2B2B2"/>
<path d="M25.3733 8.66785V17.5771H24.6761C24.4495 15.8669 24.0468 14.5074 23.4628 13.4935C22.8788 12.4796 22.0481 11.6766 20.9707 11.0819C19.8909 10.4873 18.7757 10.19 17.6203 10.19C16.3164 10.19 15.2365 10.5915 14.3832 11.397C13.5299 12.2026 13.1044 13.1174 13.1044 14.1415C13.1044 14.9267 13.3738 15.6433 13.9125 16.2887C14.6903 17.2391 16.5404 18.5046 19.4629 20.0877C21.8467 21.3786 23.4728 22.3697 24.3463 23.0609C25.2173 23.7521 25.8894 24.5652 26.3601 25.5029C26.8308 26.4406 27.0649 27.4215 27.0649 28.4481C27.0649 30.3997 26.3148 32.0794 24.817 33.4923C23.3193 34.9051 21.3886 35.6116 19.03 35.6116C18.2899 35.6116 17.5926 35.5557 16.9407 35.4413C16.553 35.3778 15.745 35.1466 14.5216 34.7476C13.2983 34.3486 12.523 34.1504 12.1982 34.1504C11.8735 34.1504 11.6369 34.2444 11.4557 34.435C11.2744 34.6256 11.1385 35.017 11.0504 35.6116H10.3531V26.7786H11.0504C11.3776 28.6285 11.8156 30.0109 12.3669 30.9283C12.9182 31.8456 13.7614 32.6105 14.8967 33.2178C16.032 33.8252 17.278 34.1301 18.6322 34.1301C20.2005 34.1301 21.4389 33.7133 22.3477 32.8773C23.2564 32.0413 23.712 31.0528 23.712 29.9143C23.712 29.2816 23.5408 28.6412 23.1934 27.9958C22.8461 27.3503 22.3124 26.7481 21.5849 26.1916C21.0966 25.8104 19.76 25.0049 17.5775 23.7699C15.3951 22.5349 13.842 21.5514 12.9207 20.817C11.9994 20.0827 11.2996 19.272 10.8213 18.3852C10.3456 17.4983 10.1064 16.5225 10.1064 15.4603C10.1064 13.6104 10.8087 12.0196 12.2134 10.683C13.618 9.34633 15.4052 8.67801 17.5775 8.67801C18.9318 8.67801 20.3691 9.01344 21.887 9.6843C22.5893 10.0019 23.0852 10.1595 23.3747 10.1595C23.7019 10.1595 23.9662 10.0604 24.1751 9.86472C24.3816 9.66906 24.5477 9.27264 24.6736 8.67801H25.3708L25.3733 8.66785Z" fill="#B2B2B2"/>
</svg>
